# xmcd
#
# Track frame offsets:
#	150
#	19615
#	37630
#	57303
#	67873
#	89509
#	112985
#	140016
#	157953
#	177608
#	195637
#	218691
#	238344
#	266459
#	286647
#	311892
#
# Disc length: 4446
#
# Revision: 1
# Processed by: cddbd v1.5.1PL0 Copyright (c) Steve Scherf et al.
# Submitted via: CDex 1.51
# Normalized: r0:TRMNUM
#
DISCID=dc115c10
DTITLE=１９ - BEST〜春〜
DYEAR=2002
DGENRE=Folk
TTITLE0=三分間日記
TTITLE1=ビルほど遠い街
TTITLE2=まばたき
TTITLE3=キネマ
TTITLE4=無意識とは
TTITLE5=Ｃｏｒｏｎａ
TTITLE6=いつもどおりのまま（アンプラグド編）
TTITLE7=瞬間概念
TTITLE8=熊じいちゃん
TTITLE9=以心伝心
TTITLE10=「伝えたい音」
TTITLE11=太陽は僕らを照らしてた
TTITLE12=炎
TTITLE13=Ｓｉｎｇ　Ａ　Ｓｏｎｇ
TTITLE14=蒲公英-たんぽぽ-（プリプロダクション編）
TTITLE15=小田急柿生（弾き語り編）
EXTD=YEAR: 2002
EXTT0=
EXTT1=
EXTT2=
EXTT3=
EXTT4=
EXTT5=
EXTT6=
EXTT7=
EXTT8=
EXTT9=
EXTT10=
EXTT11=
EXTT12=
EXTT13=
EXTT14=
EXTT15=
PLAYORDER=
